#!OML:ASF H:\Punching\Project 1\Capture day 1\Session 1\female.ASF
:FULLY-SPECIFIED
:DEGREES
2064
root 0.363435 15.1277 11.5797 23.5399 -22.1015 -7.26682
lowerback 3.3882 -4.88053 -1.03684
upperback -4.17273 -6.41524 4.56998
thorax -5.59857 -3.06002 5.85666
lowerneck -6.90244 11.9009 18.131
upperneck 18.541 15.9421 -11.1483
head 9.35576 7.85322 -4.84027
rclavicle 1.3905e-013 3.97569e-016
rhumerus 13.133 45.0933 -86.3754
rradius 127.014
rwrist 0.37077
rhand -37.578 16.4154
rfingers 7.12502
rthumb -10.6322 -13.2956
lclavicle 1.3905e-013 3.97569e-016
lhumerus 22.0276 -35.6378 77.7767
lradius 55.7918
lwrist -21.2552
lhand -44.5548 0.71602
lfingers 7.12502
lthumb -17.3552 29.9612
rfemur -2.83609 7.4158 8.33159
rtibia -1.27222e-014
rfoot -11.308 -7.24042
rtoes -14.1503
lfemur -52.749 6.59887 -10.7208
ltibia 48.2784
lfoot -12.8778 10.8903
ltoes 2.85937
2065
root 0.373782 15.1244 11.6076 23.5279 -22.1898 -7.2988
lowerback 3.37196 -4.67306 -0.906199
upperback -4.12114 -6.13765 4.33308
thorax -5.60148 -2.93089 5.51213
lowerneck -7.16431 11.7226 18.0749
upperneck 18.6803 15.5995 -10.8466
head 9.36561 7.70495 -4.76989
rclavicle -1.69166e-013 1.90833e-014
rhumerus 13.1852 44.7708 -86.287
rradius 127.122
rwrist 0.164192
rhand -37.3882 15.9209
rfingers 7.12502
rthumb -10.4491 -13.7994
lclavicle -1.69166e-013 1.90833e-014
lhumerus 22.3131 -35.7642 77.6353
lradius 55.9352
lwrist -21.0699
lhand -44.5448 0.907483
lfingers 7.12502
lthumb -17.3456 30.1535
rfemur -2.75773 7.61231 8.26218
rtibia -3.18055e-015
rfoot -11.2429 -7.3509
rtoes -14.2539
lfemur -52.716 6.58627 -10.7619
ltibia 48.5058
lfoot -13.0749 10.976
ltoes 2.7686
2066
root 0.381102 15.1218 11.6329 23.4768 -22.2553 -7.31314
lowerback 3.39115 -4.47443 -0.805623
upperback -4.08077 -5.87279 4.11554
thorax -5.62693 -2.80594 5.20991
lowerneck -7.4254 11.5558 18.0241
upperneck 18.8564 15.2792 -10.5655
head 9.39552 7.56661 -4.70366
rclavicle 5.60573e-014 -2.82274e-014
rhumerus 13.1888 44.4418 -86.1949
rradius 127.214
rwrist -0.0804844
rhand -37.2795 15.6867
rfingers 7.12502
rthumb -10.3442 -14.0389
lclavicle 5.60573e-014 -2.82274e-014
lhumerus 22.4926 -35.8497 77.5247
lradius 56.0516
lwrist -20.9682
lhand -44.5211 1.15642
lfingers 7.12502
lthumb -17.3228 30.4044
rfemur -2.63748 7.79055 8.20807
rtibia 3.18055e-015
rfoot -11.1941 -7.478
rtoes -14.3499
lfemur -52.6361 6.54741 -10.7966
ltibia 48.6953
lfoot -13.2543 11.0648
ltoes 2.6692
2067
root 0.385429 15.1198 11.6559 23.3979 -22.3029 -7.31784
lowerback 3.43432 -4.27929 -0.729413
upperback -4.05592 -5.61309 3.919
thorax -5.67483 -2.68171 4.94671
lowerneck -7.66808 11.391 17.9714
upperneck 19.0528 14.9693 -10.2983
head 9.43305 7.4333 -4.64117
rclavicle -2.15681e-014 -5.56597e-015
rhumerus 13.1335 44.0991 -86.1067
rradius 127.281
rwrist -0.318853
rhand -37.2798 15.6692
rfingers 7.12502
rthumb -10.3446 -14.0563
lclavicle -2.15681e-014 -5.56597e-015
lhumerus 22.5836 -35.9171 77.4495
lradius 56.1414
lwrist -20.8853
lhand -44.4732 1.39558
lfingers 7.12502
lthumb -17.2767 30.6476
rfemur -2.48676 7.95603 8.17263
rtibia -1.90833e-014
rfoot -11.1546 -7.61689
rtoes -14.4583
lfemur -52.5169 6.49138 -10.8196
ltibia 48.846
lfoot -13.4174 11.1553
ltoes 2.57455
2068
root 0.386842 15.1183 11.6768 23.3018 -22.3338 -7.31562
lowerback 3.48652 -4.09113 -0.680375
upperback -4.04618 -5.36341 3.74723
thorax -5.73588 -2.56074 4.72648
lowerneck -7.88937 11.2318 17.9154
upperneck 19.2621 14.6733 -10.0382
head 9.47499 7.30722 -4.57943
rclavicle 2.9122e-014 1.43125e-014
rhumerus 13.0352 43.7722 -86.0176
rradius 127.339
rwrist -0.502443
rhand -37.3196 15.6716
rfingers 7.12502
rthumb -10.3829 -14.0521
lclavicle 2.9122e-014 1.43125e-014
lhumerus 22.5977 -35.976 77.4081
lradius 56.2014
lwrist -20.8036
lhand -44.4343 1.64941
lfingers 7.12502
lthumb -17.2393 30.9047
rfemur -2.31707 8.10866 8.15497
rtibia -9.54166e-015
rfoot -11.1211 -7.76114
rtoes -14.5841
lfemur -52.3712 6.42405 -10.831
ltibia 48.9605
lfoot -13.5601 11.2442
ltoes 2.47676
2069
root 0.38536 15.1176 11.6954 23.1968 -22.347 -7.30855
lowerback 3.53158 -3.90791 -0.651352
upperback -4.04963 -5.12091 3.59742
thorax -5.80067 -2.44222 4.54042
lowerneck -8.08869 11.0745 17.8517
upperneck 19.4774 14.3839 -9.77507
head 9.51641 7.18546 -4.51534
rclavicle 9.33294e-014 1.82882e-014
rhumerus 12.9 43.505 -85.9169
rradius 127.411
rwrist -0.504606
rhand -37.4436 15.1297
rfingers 7.12502
rthumb -10.5026 -14.588
lclavicle 9.33294e-014 1.82882e-014
lhumerus 22.5513 -36.0388 77.3974
lradius 56.248
lwrist -20.6913
lhand -44.3954 1.85679
lfingers 7.12502
lthumb -17.2018 31.1154
rfemur -2.13699 8.24645 8.15559
rtibia 6.36111e-015
rfoot -11.0901 -7.9064
rtoes -14.7234
lfemur -52.2107 6.34892 -10.8289
ltibia 49.0435
lfoot -13.6811 11.3261
ltoes 2.37244
2070
root 0.381087 15.1175 11.7119 23.0884 -22.3378 -7.29816
lowerback 3.55734 -3.73584 -0.64078
upperback -4.06162 -4.89389 3.4711
thorax -5.85726 -2.33057 4.38858
lowerneck -8.26992 10.9231 17.7838
upperneck 19.695 14.1052 -9.50833
head 9.55762 7.07005 -4.44828
rclavicle -2.80286e-014 3.97569e-015
rhumerus 12.7463 43.2972 -85.8116
rradius 127.492
rwrist -0.346894
rhand -37.6184 14.1386
rfingers 7.12502
rthumb -10.6712 -15.5704
lclavicle -2.80286e-014 3.97569e-015
lhumerus 22.458 -36.1129 77.3995
lradius 56.2995
lwrist -20.5613
lhand -44.376 2.07247
lfingers 7.12502
lthumb -17.1831 31.3327
rfemur -1.95057 8.36464 8.17555
rtibia 9.54166e-015
rfoot -11.0617 -8.0482
rtoes -14.8665
lfemur -52.046 6.26643 -10.8118
ltibia 49.1026
lfoot -13.7764 11.3937
ltoes 2.25031
2071
root 0.373857 15.1181 11.726 22.9766 -22.3085 -7.28799
lowerback 3.56546 -3.57694 -0.649923
upperback -4.08083 -4.68497 3.37066
thorax -5.90533 -2.22692 4.2747
lowerneck -8.42857 10.7787 17.707
upperneck 19.9102 13.8399 -9.23822
head 9.59609 6.96185 -4.37745
rclavicle 7.67309e-014 -3.97569e-014
rhumerus 12.5823 43.1577 -85.7054
rradius 127.582
rwrist -0.0449405
rhand -37.8155 12.7025
rfingers 7.12502
rthumb -10.8613 -16.9967
lclavicle 7.67309e-014 -3.97569e-014
lhumerus 22.3225 -36.1883 77.4131
lradius 56.3696
lwrist -20.4334
lhand -44.3695 2.25269
lfingers 7.12502
lthumb -17.1769 31.5135
rfemur -1.75935 8.46644 8.21775
rtibia 0
rfoot -11.0323 -8.18201
rtoes -14.9996
lfemur -51.8784 6.18165 -10.775
ltibia 49.1431
lfoot -13.8444 11.4402
ltoes 2.09675
